<mxfile host="app.diagrams.net" agent="Mozilla/5.0 (Windows NT 10.0; Win64; x64) AppleWebKit/537.36 (KHTML, like Gecko) Chrome/130.0.0.0 Safari/537.36" version="24.8.6">
  <diagram name="Page-1" id="_qvAzBRhQf29FkUdEgEJ">
    <mxGraphModel dx="1434" dy="746" grid="1" gridSize="10" guides="1" tooltips="1" connect="1" arrows="1" fold="1" page="1" pageScale="1" pageWidth="850" pageHeight="1100" math="0" shadow="0">
      <root>
        <mxCell id="0" />
        <mxCell id="1" parent="0" />
        <mxCell id="3R9f7w64Ft97-pPocAw1-1" value="" style="rounded=1;whiteSpace=wrap;html=1;dashed=1;" vertex="1" parent="1">
          <mxGeometry x="185" y="450" width="615" height="440" as="geometry" />
        </mxCell>
        <mxCell id="3R9f7w64Ft97-pPocAw1-2" value="Sobel Fifo" style="text;html=1;align=center;verticalAlign=middle;whiteSpace=wrap;rounded=0;" vertex="1" parent="1">
          <mxGeometry x="420" y="410" width="60" height="30" as="geometry" />
        </mxCell>
        <mxCell id="3R9f7w64Ft97-pPocAw1-3" value="Double Line Buffer" style="rounded=1;whiteSpace=wrap;html=1;" vertex="1" parent="1">
          <mxGeometry x="210" y="475" width="150" height="375" as="geometry" />
        </mxCell>
        <mxCell id="3R9f7w64Ft97-pPocAw1-4" value="Data modulate" style="rounded=1;whiteSpace=wrap;html=1;" vertex="1" parent="1">
          <mxGeometry x="530" y="470" width="190" height="380" as="geometry" />
        </mxCell>
        <mxCell id="3R9f7w64Ft97-pPocAw1-8" value="" style="endArrow=classic;html=1;rounded=0;entryX=0.001;entryY=0.204;entryDx=0;entryDy=0;entryPerimeter=0;" edge="1" parent="1">
          <mxGeometry width="50" height="50" relative="1" as="geometry">
            <mxPoint x="104" y="571" as="sourcePoint" />
            <mxPoint x="210" y="570" as="targetPoint" />
          </mxGeometry>
        </mxCell>
        <mxCell id="3R9f7w64Ft97-pPocAw1-9" value="" style="endArrow=classic;html=1;rounded=0;entryX=0.001;entryY=0.204;entryDx=0;entryDy=0;entryPerimeter=0;" edge="1" parent="1">
          <mxGeometry width="50" height="50" relative="1" as="geometry">
            <mxPoint x="104" y="715.5" as="sourcePoint" />
            <mxPoint x="210" y="714.5" as="targetPoint" />
          </mxGeometry>
        </mxCell>
        <mxCell id="3R9f7w64Ft97-pPocAw1-12" value="data_i" style="text;html=1;align=center;verticalAlign=middle;whiteSpace=wrap;rounded=0;" vertex="1" parent="1">
          <mxGeometry x="220" y="560" width="50" height="30" as="geometry" />
        </mxCell>
        <mxCell id="3R9f7w64Ft97-pPocAw1-13" value="we_i" style="text;html=1;align=center;verticalAlign=middle;whiteSpace=wrap;rounded=0;" vertex="1" parent="1">
          <mxGeometry x="210" y="700" width="60" height="30" as="geometry" />
        </mxCell>
        <mxCell id="3R9f7w64Ft97-pPocAw1-15" value="" style="endArrow=classic;html=1;rounded=0;exitX=1.002;exitY=0.645;exitDx=0;exitDy=0;exitPerimeter=0;" edge="1" parent="1" source="3R9f7w64Ft97-pPocAw1-27">
          <mxGeometry width="50" height="50" relative="1" as="geometry">
            <mxPoint x="715" y="521" as="sourcePoint" />
            <mxPoint x="820" y="540" as="targetPoint" />
          </mxGeometry>
        </mxCell>
        <mxCell id="3R9f7w64Ft97-pPocAw1-16" value="" style="endArrow=classic;html=1;rounded=0;exitX=0.978;exitY=0.578;exitDx=0;exitDy=0;exitPerimeter=0;" edge="1" parent="1" source="3R9f7w64Ft97-pPocAw1-28">
          <mxGeometry width="50" height="50" relative="1" as="geometry">
            <mxPoint x="715" y="561" as="sourcePoint" />
            <mxPoint x="820" y="567" as="targetPoint" />
          </mxGeometry>
        </mxCell>
        <mxCell id="3R9f7w64Ft97-pPocAw1-17" value="" style="endArrow=classic;html=1;rounded=0;exitX=1.011;exitY=0.389;exitDx=0;exitDy=0;exitPerimeter=0;" edge="1" parent="1" source="3R9f7w64Ft97-pPocAw1-29">
          <mxGeometry width="50" height="50" relative="1" as="geometry">
            <mxPoint x="715" y="601" as="sourcePoint" />
            <mxPoint x="820" y="592" as="targetPoint" />
          </mxGeometry>
        </mxCell>
        <mxCell id="3R9f7w64Ft97-pPocAw1-18" value="" style="endArrow=classic;html=1;rounded=0;exitX=1;exitY=0.5;exitDx=0;exitDy=0;" edge="1" parent="1" source="3R9f7w64Ft97-pPocAw1-30">
          <mxGeometry width="50" height="50" relative="1" as="geometry">
            <mxPoint x="715" y="641" as="sourcePoint" />
            <mxPoint x="820" y="625" as="targetPoint" />
          </mxGeometry>
        </mxCell>
        <mxCell id="3R9f7w64Ft97-pPocAw1-19" value="" style="endArrow=classic;html=1;rounded=0;exitX=1;exitY=0.5;exitDx=0;exitDy=0;" edge="1" parent="1" source="3R9f7w64Ft97-pPocAw1-32">
          <mxGeometry width="50" height="50" relative="1" as="geometry">
            <mxPoint x="715" y="681" as="sourcePoint" />
            <mxPoint x="820" y="695" as="targetPoint" />
          </mxGeometry>
        </mxCell>
        <mxCell id="3R9f7w64Ft97-pPocAw1-20" value="" style="endArrow=classic;html=1;rounded=0;exitX=1;exitY=0.578;exitDx=0;exitDy=0;exitPerimeter=0;" edge="1" parent="1" source="3R9f7w64Ft97-pPocAw1-33">
          <mxGeometry width="50" height="50" relative="1" as="geometry">
            <mxPoint x="715" y="721" as="sourcePoint" />
            <mxPoint x="820" y="737" as="targetPoint" />
          </mxGeometry>
        </mxCell>
        <mxCell id="3R9f7w64Ft97-pPocAw1-21" value="" style="endArrow=classic;html=1;rounded=0;exitX=1.011;exitY=0.62;exitDx=0;exitDy=0;exitPerimeter=0;" edge="1" parent="1" source="3R9f7w64Ft97-pPocAw1-25">
          <mxGeometry width="50" height="50" relative="1" as="geometry">
            <mxPoint x="720" y="505.5" as="sourcePoint" />
            <mxPoint x="820" y="510" as="targetPoint" />
          </mxGeometry>
        </mxCell>
        <mxCell id="3R9f7w64Ft97-pPocAw1-22" value="" style="endArrow=classic;html=1;rounded=0;entryX=0.001;entryY=0.204;entryDx=0;entryDy=0;entryPerimeter=0;exitX=1.022;exitY=0.356;exitDx=0;exitDy=0;exitPerimeter=0;" edge="1" parent="1" source="3R9f7w64Ft97-pPocAw1-34">
          <mxGeometry width="50" height="50" relative="1" as="geometry">
            <mxPoint x="715" y="761" as="sourcePoint" />
            <mxPoint x="821" y="760" as="targetPoint" />
          </mxGeometry>
        </mxCell>
        <mxCell id="3R9f7w64Ft97-pPocAw1-23" value="" style="endArrow=classic;html=1;rounded=0;exitX=1;exitY=0.5;exitDx=0;exitDy=0;" edge="1" parent="1" source="3R9f7w64Ft97-pPocAw1-35">
          <mxGeometry width="50" height="50" relative="1" as="geometry">
            <mxPoint x="730" y="795.5" as="sourcePoint" />
            <mxPoint x="820" y="795" as="targetPoint" />
          </mxGeometry>
        </mxCell>
        <mxCell id="3R9f7w64Ft97-pPocAw1-24" value="" style="endArrow=classic;html=1;rounded=0;exitX=1;exitY=0.5;exitDx=0;exitDy=0;" edge="1" parent="1" source="3R9f7w64Ft97-pPocAw1-36">
          <mxGeometry width="50" height="50" relative="1" as="geometry">
            <mxPoint x="715" y="831" as="sourcePoint" />
            <mxPoint x="820" y="825" as="targetPoint" />
          </mxGeometry>
        </mxCell>
        <mxCell id="3R9f7w64Ft97-pPocAw1-25" value="d0_o [7:0]" style="text;html=1;align=center;verticalAlign=middle;whiteSpace=wrap;rounded=0;" vertex="1" parent="1">
          <mxGeometry x="660" y="490" width="60" height="30" as="geometry" />
        </mxCell>
        <mxCell id="3R9f7w64Ft97-pPocAw1-27" value="d1_o [7:0]" style="text;html=1;align=center;verticalAlign=middle;whiteSpace=wrap;rounded=0;" vertex="1" parent="1">
          <mxGeometry x="660" y="520" width="60" height="30" as="geometry" />
        </mxCell>
        <mxCell id="3R9f7w64Ft97-pPocAw1-28" value="d2_o [7:0]" style="text;html=1;align=center;verticalAlign=middle;whiteSpace=wrap;rounded=0;" vertex="1" parent="1">
          <mxGeometry x="660" y="550" width="60" height="30" as="geometry" />
        </mxCell>
        <mxCell id="3R9f7w64Ft97-pPocAw1-29" value="d3_o [7:0]" style="text;html=1;align=center;verticalAlign=middle;whiteSpace=wrap;rounded=0;" vertex="1" parent="1">
          <mxGeometry x="660" y="580" width="60" height="30" as="geometry" />
        </mxCell>
        <mxCell id="3R9f7w64Ft97-pPocAw1-30" value="d4_o [7:0]" style="text;html=1;align=center;verticalAlign=middle;whiteSpace=wrap;rounded=0;" vertex="1" parent="1">
          <mxGeometry x="660" y="610" width="60" height="30" as="geometry" />
        </mxCell>
        <mxCell id="3R9f7w64Ft97-pPocAw1-32" value="d5_o [7:0]" style="text;html=1;align=center;verticalAlign=middle;whiteSpace=wrap;rounded=0;" vertex="1" parent="1">
          <mxGeometry x="660" y="680" width="60" height="30" as="geometry" />
        </mxCell>
        <mxCell id="3R9f7w64Ft97-pPocAw1-33" value="d6_o [7:0]" style="text;html=1;align=center;verticalAlign=middle;whiteSpace=wrap;rounded=0;" vertex="1" parent="1">
          <mxGeometry x="660" y="720" width="60" height="30" as="geometry" />
        </mxCell>
        <mxCell id="3R9f7w64Ft97-pPocAw1-34" value="d7_o [7:0]" style="text;html=1;align=center;verticalAlign=middle;whiteSpace=wrap;rounded=0;" vertex="1" parent="1">
          <mxGeometry x="660" y="750" width="60" height="30" as="geometry" />
        </mxCell>
        <mxCell id="3R9f7w64Ft97-pPocAw1-35" value="d8_o [7:0]" style="text;html=1;align=center;verticalAlign=middle;whiteSpace=wrap;rounded=0;" vertex="1" parent="1">
          <mxGeometry x="660" y="780" width="60" height="30" as="geometry" />
        </mxCell>
        <mxCell id="3R9f7w64Ft97-pPocAw1-36" value="done_o" style="text;html=1;align=center;verticalAlign=middle;whiteSpace=wrap;rounded=0;" vertex="1" parent="1">
          <mxGeometry x="660" y="810" width="60" height="30" as="geometry" />
        </mxCell>
        <mxCell id="3R9f7w64Ft97-pPocAw1-38" value="" style="endArrow=classic;html=1;rounded=0;exitX=1.007;exitY=0.403;exitDx=0;exitDy=0;exitPerimeter=0;entryX=0.008;entryY=0.405;entryDx=0;entryDy=0;entryPerimeter=0;" edge="1" parent="1" source="3R9f7w64Ft97-pPocAw1-3" target="3R9f7w64Ft97-pPocAw1-4">
          <mxGeometry width="50" height="50" relative="1" as="geometry">
            <mxPoint x="450" y="670" as="sourcePoint" />
            <mxPoint x="500" y="620" as="targetPoint" />
          </mxGeometry>
        </mxCell>
        <mxCell id="3R9f7w64Ft97-pPocAw1-39" value="" style="endArrow=classic;html=1;rounded=0;exitX=1;exitY=0.5;exitDx=0;exitDy=0;entryX=0;entryY=0.283;entryDx=0;entryDy=0;entryPerimeter=0;" edge="1" parent="1" source="3R9f7w64Ft97-pPocAw1-46" target="3R9f7w64Ft97-pPocAw1-4">
          <mxGeometry width="50" height="50" relative="1" as="geometry">
            <mxPoint x="360" y="584.5" as="sourcePoint" />
            <mxPoint x="580" y="585.5" as="targetPoint" />
          </mxGeometry>
        </mxCell>
        <mxCell id="3R9f7w64Ft97-pPocAw1-41" value="" style="endArrow=classic;html=1;rounded=0;exitX=1.01;exitY=0.151;exitDx=0;exitDy=0;exitPerimeter=0;entryX=0.001;entryY=0.158;entryDx=0;entryDy=0;entryPerimeter=0;" edge="1" parent="1" source="3R9f7w64Ft97-pPocAw1-3" target="3R9f7w64Ft97-pPocAw1-4">
          <mxGeometry width="50" height="50" relative="1" as="geometry">
            <mxPoint x="360" y="534" as="sourcePoint" />
            <mxPoint x="580" y="535" as="targetPoint" />
          </mxGeometry>
        </mxCell>
        <mxCell id="3R9f7w64Ft97-pPocAw1-42" value="" style="endArrow=classic;html=1;rounded=0;exitX=1.014;exitY=0.7;exitDx=0;exitDy=0;exitPerimeter=0;entryX=-0.008;entryY=0.702;entryDx=0;entryDy=0;entryPerimeter=0;" edge="1" parent="1" source="3R9f7w64Ft97-pPocAw1-3" target="3R9f7w64Ft97-pPocAw1-4">
          <mxGeometry width="50" height="50" relative="1" as="geometry">
            <mxPoint x="350" y="760" as="sourcePoint" />
            <mxPoint x="570" y="761" as="targetPoint" />
          </mxGeometry>
        </mxCell>
        <mxCell id="3R9f7w64Ft97-pPocAw1-43" value="d0_o&amp;nbsp; [7:0]" style="text;html=1;align=center;verticalAlign=middle;whiteSpace=wrap;rounded=0;" vertex="1" parent="1">
          <mxGeometry x="310" y="520" width="50" height="30" as="geometry" />
        </mxCell>
        <mxCell id="3R9f7w64Ft97-pPocAw1-46" value="d1_o [7:0]" style="text;html=1;align=center;verticalAlign=middle;whiteSpace=wrap;rounded=0;" vertex="1" parent="1">
          <mxGeometry x="310" y="565" width="50" height="30" as="geometry" />
        </mxCell>
        <mxCell id="3R9f7w64Ft97-pPocAw1-47" value="d2_o [7:0]" style="text;html=1;align=center;verticalAlign=middle;whiteSpace=wrap;rounded=0;" vertex="1" parent="1">
          <mxGeometry x="310" y="610" width="50" height="30" as="geometry" />
        </mxCell>
        <mxCell id="3R9f7w64Ft97-pPocAw1-48" value="done_o" style="text;html=1;align=center;verticalAlign=middle;whiteSpace=wrap;rounded=0;" vertex="1" parent="1">
          <mxGeometry x="310" y="720" width="50" height="30" as="geometry" />
        </mxCell>
        <mxCell id="3R9f7w64Ft97-pPocAw1-51" value="d0_i [7:0]" style="text;html=1;align=center;verticalAlign=middle;whiteSpace=wrap;rounded=0;" vertex="1" parent="1">
          <mxGeometry x="530" y="520" width="50" height="30" as="geometry" />
        </mxCell>
        <mxCell id="3R9f7w64Ft97-pPocAw1-53" value="d1_i [7:0]" style="text;html=1;align=center;verticalAlign=middle;whiteSpace=wrap;rounded=0;" vertex="1" parent="1">
          <mxGeometry x="530" y="565" width="50" height="30" as="geometry" />
        </mxCell>
        <mxCell id="3R9f7w64Ft97-pPocAw1-54" value="d2_i [7:0]" style="text;html=1;align=center;verticalAlign=middle;whiteSpace=wrap;rounded=0;" vertex="1" parent="1">
          <mxGeometry x="530" y="610" width="50" height="30" as="geometry" />
        </mxCell>
      </root>
    </mxGraphModel>
  </diagram>
</mxfile>
